<svg width="449" height="88" viewBox="0 0 449 88" fill="none" xmlns="http://www.w3.org/2000/svg">
<g clip-path="url(#clip0_554_148)">
<path d="M69.9124 21.1746C69.8636 21.1513 69.8132 21.1315 69.7616 21.1156C67.3757 20.1859 64.8382 19.7101 62.2788 19.7124H60.1516C60.0111 19.7122 59.8719 19.7398 59.7421 19.7937C59.6122 19.8476 59.4942 19.9266 59.3949 20.0263C59.2955 20.126 59.2167 20.2444 59.163 20.3747C59.1094 20.505 59.0818 20.6446 59.082 20.7856V49.3782C59.0924 49.6556 59.2096 49.9182 59.4089 50.1108C59.6082 50.3034 59.8742 50.411 60.1509 50.411C60.4276 50.411 60.6936 50.3034 60.8929 50.1108C61.0922 49.9182 61.2094 49.6556 61.2197 49.3782V21.8572H62.2758C64.3554 21.8561 66.4204 22.2061 68.3842 22.8926V43.1072C68.385 43.9966 68.7374 44.8495 69.3642 45.4786C69.9909 46.1077 70.8408 46.4617 71.7273 46.4629H80.862V51.0038H73.0655C72.9217 50.9984 72.7784 51.0221 72.644 51.0736C72.5096 51.125 72.3869 51.2031 72.2833 51.3032C72.1797 51.4034 72.0973 51.5234 72.041 51.6562C71.9847 51.789 71.9557 51.9319 71.9557 52.0762C71.9557 52.2205 71.9847 52.3634 72.041 52.4962C72.0973 52.629 72.1797 52.7491 72.2833 52.8492C72.3869 52.9493 72.5096 53.0274 72.644 53.0789C72.7784 53.1303 72.9217 53.154 73.0655 53.1486H80.862V57.5699H69.7752C69.6314 57.5645 69.4881 57.5883 69.3537 57.6397C69.2193 57.6912 69.0966 57.7693 68.993 57.8694C68.8894 57.9695 68.807 58.0896 68.7507 58.2224C68.6944 58.3552 68.6654 58.498 68.6654 58.6424C68.6654 58.7867 68.6944 58.9295 68.7507 59.0623C68.807 59.1951 68.8894 59.3152 68.993 59.4153C69.0966 59.5154 69.2193 59.5936 69.3537 59.645C69.4881 59.6965 69.6314 59.7202 69.7752 59.7148H81.9316C82.2149 59.7148 82.4866 59.6019 82.6869 59.4009C82.8872 59.1999 82.9997 58.9273 82.9997 58.6431V40.5052C82.9952 36.3395 81.7458 32.2708 79.4128 28.8248C77.0798 25.3789 73.7705 22.714 69.9124 21.1746V21.1746ZM71.7228 44.3166C71.4027 44.3166 71.0957 44.189 70.8694 43.9619C70.643 43.7348 70.5159 43.4268 70.5159 43.1056V23.7977C73.6196 25.3403 76.2324 27.7215 78.0603 30.6732C79.8882 33.625 80.8585 37.0301 80.862 40.5052V44.3166H71.7228Z" fill="#6D91EE"/>
<path d="M10.8968 51.1338C8.74162 51.1338 6.63483 51.775 4.84286 52.9763C3.0509 54.1777 1.65423 55.8852 0.829474 57.8829C0.00472143 59.8806 -0.211071 62.0789 0.209384 64.1997C0.629839 66.3205 1.66766 68.2686 3.1916 69.7976C4.71555 71.3266 6.65717 72.3679 8.77094 72.7897C10.8847 73.2116 13.0757 72.995 15.0668 72.1676C17.058 71.3401 18.7598 69.9388 19.9572 68.1408C21.1545 66.3429 21.7936 64.2291 21.7936 62.0668C21.7904 59.1682 20.6413 56.3892 18.5985 54.3395C16.5556 52.2899 13.7858 51.137 10.8968 51.1338V51.1338ZM10.8968 70.855C9.16442 70.855 7.47094 70.3395 6.03052 69.3739C4.5901 68.4082 3.46742 67.0357 2.80447 65.4299C2.14152 63.824 1.96806 62.057 2.30603 60.3523C2.644 58.6476 3.47822 57.0817 4.7032 55.8526C5.92818 54.6236 7.4889 53.7866 9.18799 53.4475C10.8871 53.1084 12.6482 53.2824 14.2488 53.9476C15.8493 54.6127 17.2172 55.7391 18.1797 57.1843C19.1422 58.6295 19.6559 60.3286 19.6559 62.0668C19.6535 64.3968 18.7299 66.6307 17.0878 68.2783C15.4456 69.9259 13.2191 70.8525 10.8968 70.855V70.855Z" fill="#6D91EE"/>
<path d="M10.8968 59.1685C10.3254 59.1685 9.76687 59.3385 9.29178 59.657C8.81668 59.9755 8.44639 60.4282 8.22773 60.9578C8.00906 61.4875 7.95185 62.0703 8.06333 62.6326C8.1748 63.1948 8.44995 63.7113 8.85399 64.1167C9.25802 64.5221 9.7728 64.7981 10.3332 64.91C10.8936 65.0218 11.4745 64.9644 12.0024 64.745C12.5303 64.5256 12.9815 64.1541 13.299 63.6774C13.6164 63.2008 13.7858 62.6404 13.7858 62.0671C13.785 61.2985 13.4804 60.5617 12.9388 60.0183C12.3972 59.4749 11.6628 59.1693 10.8968 59.1685V59.1685ZM10.8968 62.8209C10.7476 62.8209 10.6018 62.7765 10.4778 62.6933C10.3537 62.6101 10.257 62.4919 10.1999 62.3537C10.1428 62.2154 10.1279 62.0632 10.157 61.9164C10.1861 61.7696 10.258 61.6347 10.3635 61.5289C10.4689 61.423 10.6033 61.351 10.7497 61.3218C10.896 61.2926 11.0477 61.3075 11.1855 61.3648C11.3233 61.4221 11.4411 61.5191 11.524 61.6436C11.6069 61.768 11.6511 61.9144 11.6511 62.064C11.6511 62.2648 11.5717 62.4573 11.4302 62.5992C11.2887 62.7411 11.0969 62.8209 10.8968 62.8209V62.8209Z" fill="#6D91EE"/>
<path d="M57.3275 51.1338C55.1723 51.1338 53.0655 51.775 51.2735 52.9763C49.4816 54.1777 48.0849 55.8852 47.2601 57.8829C46.4354 59.8806 46.2196 62.0789 46.64 64.1997C47.0605 66.3205 48.0983 68.2686 49.6223 69.7976C51.1462 71.3266 53.0878 72.3679 55.2016 72.7897C57.3154 73.2116 59.5064 72.995 61.4975 72.1676C63.4886 71.3401 65.1905 69.9388 66.3878 68.1408C67.5852 66.3429 68.2243 64.2291 68.2243 62.0668C68.2211 59.1682 67.072 56.3892 65.0291 54.3395C62.9863 52.2899 60.2165 51.137 57.3275 51.1338V51.1338ZM57.3275 70.855C55.5947 70.8567 53.9003 70.3429 52.4587 69.3783C51.0171 68.4137 49.893 67.0418 49.2287 65.4362C48.5643 63.8305 48.3896 62.0632 48.7265 60.3579C49.0635 58.6525 49.897 57.0858 51.1216 55.8558C52.3462 54.6259 53.9069 53.788 55.6063 53.4481C57.3056 53.1083 59.0672 53.2818 60.6683 53.9467C62.2693 54.6116 63.6378 55.738 64.6007 57.1834C65.5635 58.6288 66.0775 60.3283 66.0775 62.0668C66.0751 64.3952 65.1527 66.6278 63.5126 68.2751C61.8724 69.9224 59.6482 70.8501 57.3275 70.855Z" fill="#6D91EE"/>
<path d="M57.3275 59.1685C56.7561 59.1685 56.1975 59.3385 55.7224 59.657C55.2473 59.9755 54.8771 60.4282 54.6584 60.9578C54.4397 61.4875 54.3825 62.0703 54.494 62.6326C54.6055 63.1948 54.8806 63.7113 55.2846 64.1167C55.6887 64.5221 56.2035 64.7981 56.7639 64.91C57.3243 65.0218 57.9052 64.9644 58.4331 64.745C58.961 64.5256 59.4122 64.1541 59.7296 63.6774C60.0471 63.2008 60.2165 62.6404 60.2165 62.0671C60.2157 61.2985 59.9111 60.5617 59.3694 60.0183C58.8278 59.4749 58.0935 59.1693 57.3275 59.1685V59.1685ZM57.3275 62.8209C57.1783 62.8209 57.0325 62.7765 56.9084 62.6933C56.7844 62.6101 56.6877 62.4919 56.6306 62.3537C56.5735 62.2154 56.5586 62.0632 56.5877 61.9164C56.6168 61.7696 56.6886 61.6347 56.7941 61.5289C56.8996 61.423 57.034 61.351 57.1803 61.3218C57.3267 61.2926 57.4783 61.3075 57.6162 61.3648C57.754 61.4221 57.8718 61.5191 57.9547 61.6436C58.0376 61.768 58.0818 61.9144 58.0818 62.064C58.0818 62.2648 58.0023 62.4573 57.8609 62.5992C57.7194 62.7411 57.5275 62.8209 57.3275 62.8209V62.8209Z" fill="#6D91EE"/>
<path d="M44.7458 57.576H23.352C23.2082 57.5705 23.0649 57.5943 22.9305 57.6457C22.7961 57.6972 22.6734 57.7753 22.5698 57.8754C22.4662 57.9755 22.3838 58.0956 22.3275 58.2284C22.2712 58.3612 22.2422 58.504 22.2422 58.6484C22.2422 58.7927 22.2712 58.9355 22.3275 59.0683C22.3838 59.2011 22.4662 59.3212 22.5698 59.4213C22.6734 59.5214 22.7961 59.5996 22.9305 59.651C23.0649 59.7025 23.2082 59.7262 23.352 59.7208H44.7458C44.8895 59.7262 45.0329 59.7025 45.1673 59.651C45.3017 59.5996 45.4243 59.5214 45.5279 59.4213C45.6315 59.3212 45.714 59.2011 45.7703 59.0683C45.8265 58.9355 45.8556 58.7927 45.8556 58.6484C45.8556 58.504 45.8265 58.3612 45.7703 58.2284C45.714 58.0956 45.6315 57.9755 45.5279 57.8754C45.4243 57.7753 45.3017 57.6972 45.1673 57.6457C45.0329 57.5943 44.8895 57.5705 44.7458 57.576Z" fill="#6D91EE"/>
<path d="M8.83586 26.1528H9.18586L12.5214 49.596C12.5315 49.7432 12.5718 49.8867 12.6397 50.0176C12.7075 50.1485 12.8016 50.2639 12.9159 50.3567C13.0302 50.4494 13.1624 50.5176 13.3042 50.5568C13.4459 50.596 13.5942 50.6055 13.7398 50.5846C13.8853 50.5637 14.0251 50.513 14.1502 50.4355C14.2753 50.358 14.3832 50.2555 14.4671 50.1343C14.551 50.0131 14.609 49.8759 14.6377 49.7312C14.6663 49.5865 14.6649 49.4374 14.6335 49.2933L11.3462 26.1528H53.2724L49.7 51.0173C49.6686 51.1614 49.6672 51.3105 49.6958 51.4552C49.7245 51.5999 49.7825 51.7372 49.8664 51.8584C49.9503 51.9795 50.0581 52.0821 50.1833 52.1595C50.3084 52.237 50.4481 52.2878 50.5937 52.3086C50.7393 52.3295 50.8876 52.32 51.0293 52.2808C51.1711 52.2416 51.3032 52.1735 51.4176 52.0807C51.5319 51.9879 51.626 51.8725 51.6938 51.7416C51.7617 51.6107 51.8019 51.4672 51.8121 51.32L55.4328 26.1498H55.7843C56.0677 26.1494 56.3394 26.0361 56.5396 25.8349C56.7399 25.6337 56.8524 25.361 56.8524 25.0766V23.5827C56.8512 22.3147 56.3487 21.0991 55.4553 20.2024C54.5618 19.3057 53.3504 18.8012 52.0866 18.7996H38.3581C38.0354 17.4327 37.2624 16.2151 36.1643 15.3438C35.0661 14.4725 33.7071 13.9985 32.307 13.9985C30.907 13.9985 29.5479 14.4725 28.4498 15.3438C27.3516 16.2151 26.5787 17.4327 26.2559 18.7996H12.5275C11.2637 18.8012 10.0523 19.3057 9.15881 20.2024C8.26536 21.0991 7.76292 22.3147 7.76172 23.5827V25.0796C7.76152 25.2205 7.789 25.36 7.84259 25.4902C7.89618 25.6204 7.97482 25.7387 8.07403 25.8384C8.17323 25.9381 8.29104 26.0171 8.42073 26.0711C8.55042 26.125 8.68943 26.1528 8.82983 26.1528H8.83586ZM32.3101 16.1447C33.1401 16.1468 33.9499 16.4018 34.6323 16.8759C35.3146 17.35 35.8374 18.0208 36.1314 18.7996H28.4887C28.7827 18.0208 29.3055 17.35 29.9879 16.8759C30.6703 16.4018 31.48 16.1468 32.3101 16.1447V16.1447ZM9.90548 23.5827C9.90627 22.8836 10.1834 22.2134 10.6761 21.7191C11.1688 21.2248 11.8367 20.9467 12.5335 20.9459H52.0866C52.7835 20.9471 53.4515 21.2255 53.9441 21.7201C54.4368 22.2146 54.7138 22.885 54.7146 23.5842V24.008H9.90849L9.90548 23.5827Z" fill="#6D91EE"/>
<path d="M30.5844 48.8891C30.8681 48.8891 31.1402 48.7761 31.3407 48.5748C31.5413 48.3736 31.654 48.1006 31.654 47.816C31.654 47.5313 31.5413 47.2584 31.3407 47.0571C31.1402 46.8559 30.8681 46.7428 30.5844 46.7428H24.6314L26.2909 43.8457L26.6228 45.049C26.6851 45.2752 26.8196 45.4747 27.0057 45.6168C27.1918 45.759 27.4193 45.836 27.6532 45.8361C27.75 45.8363 27.8465 45.823 27.9398 45.7968C28.075 45.7592 28.2016 45.6952 28.3122 45.6085C28.4228 45.5218 28.5152 45.4141 28.5843 45.2915C28.6534 45.1689 28.6977 45.0339 28.7147 44.8941C28.7317 44.7543 28.7212 44.6126 28.6835 44.4769L27.6848 40.8578C27.6543 40.7109 27.5931 40.5723 27.5052 40.4509C27.4173 40.3296 27.3047 40.2284 27.1749 40.154C27.0264 40.069 26.8599 40.0208 26.6891 40.0132H26.6303C26.5371 40.0133 26.4443 40.0256 26.3542 40.0495L22.6868 41.0682C22.4378 41.1378 22.2224 41.2954 22.0803 41.512C21.9382 41.7286 21.8791 41.9895 21.9139 42.2464C21.9486 42.5033 22.0749 42.7389 22.2694 42.9097C22.4639 43.0804 22.7135 43.1747 22.9719 43.1752C23.0683 43.1754 23.1643 43.1621 23.257 43.1358L24.4156 42.8149L21.851 47.2801C21.7575 47.4434 21.7086 47.6285 21.709 47.8168C21.7094 48.0052 21.7592 48.19 21.8534 48.3529C21.9475 48.5158 22.0828 48.651 22.2455 48.7448C22.4082 48.8387 22.5926 48.8879 22.7803 48.8876L30.5844 48.8891Z" fill="#6D91EE"/>
<path d="M42.1409 48.8922C42.3283 48.892 42.5124 48.8424 42.6747 48.7483C42.837 48.6542 42.9718 48.519 43.0656 48.3562C43.1594 48.1934 43.2089 48.0088 43.2092 47.8207C43.2095 47.6327 43.1605 47.4478 43.0672 47.2848L39.1764 40.4991C39.1065 40.3771 39.0133 40.2701 38.9021 40.1841C38.791 40.0982 38.664 40.0351 38.5286 39.9985C38.3931 39.9618 38.2518 39.9522 38.1126 39.9703C37.9735 39.9885 37.8392 40.0339 37.7176 40.1041C37.596 40.1742 37.4893 40.2678 37.4037 40.3793C37.318 40.4908 37.2552 40.6182 37.2186 40.7541C37.182 40.89 37.1725 41.0318 37.1906 41.1714C37.2086 41.311 37.2539 41.4457 37.3239 41.5678L40.2913 46.7459H36.9618L37.8368 45.8559C37.9358 45.7556 38.0142 45.6367 38.0675 45.506C38.1208 45.3754 38.1479 45.2354 38.1472 45.0943C38.1466 44.9531 38.1183 44.8134 38.0638 44.6832C38.0094 44.553 37.9299 44.4348 37.83 44.3354C37.7301 44.2361 37.6116 44.1574 37.4813 44.1039C37.3511 44.0505 37.2116 44.0233 37.0709 44.024C36.9302 44.0246 36.791 44.053 36.6612 44.1076C36.5314 44.1622 36.4136 44.242 36.3146 44.3423L33.6866 47.0138C33.575 47.1141 33.4858 47.2368 33.4247 47.374C33.3636 47.5112 33.332 47.6597 33.332 47.81C33.3316 47.9791 33.372 48.1458 33.4497 48.2959C33.4526 48.3042 33.4561 48.3123 33.4603 48.3201L33.4754 48.3428C33.5226 48.4287 33.5821 48.5072 33.6519 48.5759V48.5759L36.3583 51.2656C36.5602 51.4663 36.8333 51.5784 37.1174 51.5771C37.4016 51.5758 37.6737 51.4613 37.8737 51.2588C38.0738 51.0563 38.1855 50.7823 38.1842 50.4972C38.1829 50.212 38.0688 49.9391 37.867 49.7384L37.0116 48.8907L42.1409 48.8922Z" fill="#6D91EE"/>
<path d="M31.6073 36.4909C31.5362 36.7662 31.577 37.0587 31.7207 37.3039C31.8644 37.5491 32.0993 37.7271 32.3737 37.7986L35.9944 38.7401C36.1368 38.7878 36.2876 38.8046 36.437 38.7892C36.5863 38.7738 36.7306 38.7266 36.8603 38.6508C36.9984 38.5705 37.1169 38.4603 37.2073 38.3284C37.2104 38.3213 37.2145 38.3147 37.2194 38.3087C37.248 38.2659 37.2732 38.2208 37.2948 38.174L37.3084 38.1422C37.3286 38.0956 37.3452 38.0476 37.3582 37.9984C37.3582 37.9984 37.3582 37.9984 37.3582 37.9894L38.3177 34.2931C38.3575 34.1552 38.3693 34.0108 38.3526 33.8683C38.3358 33.7259 38.2907 33.5882 38.2199 33.4635C38.1492 33.3388 38.0543 33.2296 37.9407 33.1423C37.8272 33.0551 37.6974 32.9916 37.559 32.9555C37.4206 32.9195 37.2763 32.9117 37.1348 32.9325C36.9934 32.9534 36.8575 33.0025 36.7352 33.077C36.613 33.1514 36.5069 33.2497 36.4232 33.366C36.3394 33.4824 36.2798 33.6144 36.2478 33.7542L35.9461 34.9227L33.3739 30.462C33.2802 30.2992 33.1454 30.1641 32.983 30.0703C32.8206 29.9765 32.6365 29.9273 32.4491 29.9277C32.2615 29.9278 32.0771 29.9774 31.9146 30.0714C31.752 30.1654 31.6169 30.3007 31.5228 30.4636L27.6185 37.2401C27.5442 37.3622 27.495 37.498 27.4738 37.6394C27.4526 37.7809 27.4598 37.9251 27.4949 38.0638C27.5301 38.2024 27.5925 38.3325 27.6785 38.4466C27.7645 38.5607 27.8724 38.6563 27.9958 38.728C28.1192 38.7996 28.2556 38.8458 28.3971 38.8638C28.5385 38.8818 28.6821 38.8712 28.8194 38.8327C28.9567 38.7942 29.085 38.7285 29.1966 38.6396C29.3083 38.5507 29.4011 38.4402 29.4696 38.3148L32.4491 33.1427L34.1176 36.0353L32.9107 35.7219C32.6363 35.6506 32.3448 35.6915 32.1004 35.8357C31.856 35.9799 31.6786 36.2155 31.6073 36.4909V36.4909Z" fill="#6D91EE"/>
</g>
<path d="M130.12 57L119.74 39.48H112V57H107.8V15.06H120.4C125.08 15.06 128.62 16.18 131.02 18.42C133.46 20.66 134.68 23.6 134.68 27.24C134.68 30.28 133.8 32.88 132.04 35.04C130.32 37.16 127.76 38.54 124.36 39.18L135.16 57H130.12ZM112 36.06H120.46C123.74 36.06 126.2 35.26 127.84 33.66C129.52 32.06 130.36 29.92 130.36 27.24C130.36 24.48 129.56 22.36 127.96 20.88C126.36 19.36 123.84 18.6 120.4 18.6H112V36.06ZM157.355 57.48C154.275 57.48 151.495 56.8 149.015 55.44C146.575 54.04 144.635 52.08 143.195 49.56C141.795 47 141.095 44.02 141.095 40.62C141.095 37.22 141.815 34.26 143.255 31.74C144.695 29.18 146.655 27.22 149.135 25.86C151.615 24.46 154.395 23.76 157.475 23.76C160.555 23.76 163.335 24.46 165.815 25.86C168.335 27.22 170.295 29.18 171.695 31.74C173.135 34.26 173.855 37.22 173.855 40.62C173.855 43.98 173.135 46.94 171.695 49.5C170.255 52.06 168.275 54.04 165.755 55.44C163.235 56.8 160.435 57.48 157.355 57.48ZM157.355 53.82C159.515 53.82 161.515 53.34 163.355 52.38C165.195 51.38 166.675 49.9 167.795 47.94C168.955 45.94 169.535 43.5 169.535 40.62C169.535 37.74 168.975 35.32 167.855 33.36C166.735 31.36 165.255 29.88 163.415 28.92C161.575 27.92 159.575 27.42 157.415 27.42C155.255 27.42 153.255 27.92 151.415 28.92C149.575 29.88 148.095 31.36 146.975 33.36C145.895 35.32 145.355 37.74 145.355 40.62C145.355 43.5 145.895 45.94 146.975 47.94C148.095 49.9 149.555 51.38 151.355 52.38C153.195 53.34 155.195 53.82 157.355 53.82ZM209.891 24.24V57H205.691V51.24C204.731 53.28 203.251 54.84 201.251 55.92C199.251 57 197.011 57.54 194.531 57.54C190.611 57.54 187.411 56.34 184.931 53.94C182.451 51.5 181.211 47.98 181.211 43.38V24.24H185.351V42.9C185.351 46.46 186.231 49.18 187.991 51.06C189.791 52.94 192.231 53.88 195.311 53.88C198.471 53.88 200.991 52.88 202.871 50.88C204.751 48.88 205.691 45.94 205.691 42.06V24.24H209.891ZM234.84 23.64C238.76 23.64 241.96 24.86 244.44 27.3C246.92 29.7 248.16 33.2 248.16 37.8V57H244.02V38.28C244.02 34.72 243.12 32 241.32 30.12C239.56 28.24 237.14 27.3 234.06 27.3C230.9 27.3 228.38 28.3 226.5 30.3C224.62 32.3 223.68 35.24 223.68 39.12V57H219.48V24.24H223.68V29.82C224.72 27.82 226.22 26.3 228.18 25.26C230.14 24.18 232.36 23.64 234.84 23.64ZM255.528 40.56C255.528 37.2 256.208 34.26 257.568 31.74C258.928 29.18 260.788 27.22 263.148 25.86C265.548 24.46 268.248 23.76 271.248 23.76C274.128 23.76 276.728 24.46 279.048 25.86C281.368 27.26 283.068 29.08 284.148 31.32V12.6H288.348V57H284.148V49.68C283.148 51.96 281.508 53.84 279.228 55.32C276.948 56.76 274.268 57.48 271.188 57.48C268.188 57.48 265.488 56.78 263.088 55.38C260.728 53.98 258.868 52 257.508 49.44C256.188 46.88 255.528 43.92 255.528 40.56ZM284.148 40.62C284.148 37.98 283.608 35.66 282.528 33.66C281.448 31.66 279.968 30.12 278.088 29.04C276.248 27.96 274.208 27.42 271.968 27.42C269.648 27.42 267.568 27.94 265.728 28.98C263.888 30.02 262.428 31.54 261.348 33.54C260.308 35.5 259.788 37.84 259.788 40.56C259.788 43.24 260.308 45.6 261.348 47.64C262.428 49.64 263.888 51.18 265.728 52.26C267.568 53.3 269.648 53.82 271.968 53.82C274.208 53.82 276.248 53.28 278.088 52.2C279.968 51.12 281.448 49.58 282.528 47.58C283.608 45.58 284.148 43.26 284.148 40.62ZM336.722 57L326.342 39.48H318.602V57H314.402V15.06H327.002C331.682 15.06 335.222 16.18 337.622 18.42C340.062 20.66 341.282 23.6 341.282 27.24C341.282 30.28 340.402 32.88 338.642 35.04C336.922 37.16 334.362 38.54 330.962 39.18L341.762 57H336.722ZM318.602 36.06H327.062C330.342 36.06 332.802 35.26 334.442 33.66C336.122 32.06 336.962 29.92 336.962 27.24C336.962 24.48 336.162 22.36 334.562 20.88C332.962 19.36 330.442 18.6 327.002 18.6H318.602V36.06ZM363.956 57.48C360.876 57.48 358.096 56.8 355.616 55.44C353.176 54.04 351.236 52.08 349.796 49.56C348.396 47 347.696 44.02 347.696 40.62C347.696 37.22 348.416 34.26 349.856 31.74C351.296 29.18 353.256 27.22 355.736 25.86C358.216 24.46 360.996 23.76 364.076 23.76C367.156 23.76 369.936 24.46 372.416 25.86C374.936 27.22 376.896 29.18 378.296 31.74C379.736 34.26 380.456 37.22 380.456 40.62C380.456 43.98 379.736 46.94 378.296 49.5C376.856 52.06 374.876 54.04 372.356 55.44C369.836 56.8 367.036 57.48 363.956 57.48ZM363.956 53.82C366.116 53.82 368.116 53.34 369.956 52.38C371.796 51.38 373.276 49.9 374.396 47.94C375.556 45.94 376.136 43.5 376.136 40.62C376.136 37.74 375.576 35.32 374.456 33.36C373.336 31.36 371.856 29.88 370.016 28.92C368.176 27.92 366.176 27.42 364.016 27.42C361.856 27.42 359.856 27.92 358.016 28.92C356.176 29.88 354.696 31.36 353.576 33.36C352.496 35.32 351.956 37.74 351.956 40.62C351.956 43.5 352.496 45.94 353.576 47.94C354.696 49.9 356.156 51.38 357.956 52.38C359.796 53.34 361.796 53.82 363.956 53.82ZM386.193 40.62C386.193 37.22 386.873 34.26 388.233 31.74C389.593 29.18 391.473 27.22 393.873 25.86C396.273 24.46 399.013 23.76 402.093 23.76C406.133 23.76 409.453 24.76 412.053 26.76C414.693 28.76 416.393 31.48 417.153 34.92H412.653C412.093 32.56 410.873 30.72 408.993 29.4C407.153 28.04 404.853 27.36 402.093 27.36C399.893 27.36 397.913 27.86 396.153 28.86C394.393 29.86 392.993 31.36 391.953 33.36C390.953 35.32 390.453 37.74 390.453 40.62C390.453 43.5 390.953 45.94 391.953 47.94C392.993 49.94 394.393 51.44 396.153 52.44C397.913 53.44 399.893 53.94 402.093 53.94C404.853 53.94 407.153 53.28 408.993 51.96C410.873 50.6 412.093 48.72 412.653 46.32H417.153C416.393 49.68 414.693 52.38 412.053 54.42C409.413 56.46 406.093 57.48 402.093 57.48C399.013 57.48 396.273 56.8 393.873 55.44C391.473 54.04 389.593 52.08 388.233 49.56C386.873 47 386.193 44.02 386.193 40.62ZM442.609 57L429.109 42.3V57H424.909V12.6H429.109V38.88L442.309 24.24H448.189L432.649 40.56L448.309 57H442.609ZM115.327 67.195V70.471H111.379V82H107.263V70.471H103.357V67.195H115.327ZM136.821 72.298C137.283 71.626 137.843 71.094 138.501 70.702C139.159 70.31 139.866 70.114 140.622 70.114V74.503H139.467C138.571 74.503 137.906 74.678 137.472 75.028C137.038 75.378 136.821 75.987 136.821 76.855V82H132.705V70.219H136.821V72.298ZM170.006 70.219V82H165.869V80.32C165.519 80.852 165.036 81.286 164.42 81.622C163.804 81.944 163.097 82.105 162.299 82.105C160.927 82.105 159.842 81.657 159.044 80.761C158.26 79.851 157.868 78.619 157.868 77.065V70.219H161.963V76.54C161.963 77.212 162.138 77.744 162.488 78.136C162.852 78.514 163.328 78.703 163.916 78.703C164.518 78.703 164.994 78.514 165.344 78.136C165.694 77.744 165.869 77.212 165.869 76.54V70.219H170.006ZM193.223 82.147C192.159 82.147 191.207 81.972 190.367 81.622C189.541 81.258 188.883 80.768 188.393 80.152C187.917 79.522 187.651 78.815 187.595 78.031H191.585C191.641 78.409 191.816 78.703 192.11 78.913C192.404 79.123 192.768 79.228 193.202 79.228C193.538 79.228 193.804 79.158 194 79.018C194.196 78.878 194.294 78.696 194.294 78.472C194.294 78.178 194.133 77.961 193.811 77.821C193.489 77.681 192.957 77.527 192.215 77.359C191.375 77.191 190.675 77.002 190.115 76.792C189.555 76.582 189.065 76.239 188.645 75.763C188.239 75.287 188.036 74.643 188.036 73.831C188.036 73.131 188.225 72.501 188.603 71.941C188.981 71.367 189.534 70.912 190.262 70.576C191.004 70.24 191.893 70.072 192.929 70.072C194.469 70.072 195.68 70.45 196.562 71.206C197.444 71.962 197.955 72.956 198.095 74.188H194.378C194.308 73.81 194.14 73.523 193.874 73.327C193.622 73.117 193.279 73.012 192.845 73.012C192.509 73.012 192.25 73.075 192.068 73.201C191.9 73.327 191.816 73.502 191.816 73.726C191.816 74.006 191.977 74.223 192.299 74.377C192.621 74.517 193.139 74.664 193.853 74.818C194.707 75 195.414 75.203 195.974 75.427C196.548 75.651 197.045 76.015 197.465 76.519C197.899 77.009 198.116 77.681 198.116 78.535C198.116 79.221 197.913 79.837 197.507 80.383C197.115 80.929 196.548 81.363 195.806 81.685C195.078 81.993 194.217 82.147 193.223 82.147ZM223.743 70.114C225.087 70.114 226.151 70.569 226.935 71.479C227.733 72.375 228.132 73.593 228.132 75.133V82H224.016V75.679C224.016 75.007 223.841 74.482 223.491 74.104C223.141 73.712 222.672 73.516 222.084 73.516C221.468 73.516 220.985 73.712 220.635 74.104C220.285 74.482 220.11 75.007 220.11 75.679V82H215.994V66.46H220.11V71.899C220.474 71.367 220.964 70.94 221.58 70.618C222.21 70.282 222.931 70.114 223.743 70.114ZM279.371 67.195V82H275.255V76.057H270.236V82H266.12V67.195H270.236V72.76H275.255V67.195H279.371ZM296.91 76.099C296.91 74.881 297.127 73.817 297.561 72.907C298.009 71.997 298.611 71.297 299.367 70.807C300.137 70.317 300.991 70.072 301.929 70.072C302.741 70.072 303.441 70.233 304.029 70.555C304.617 70.877 305.072 71.311 305.394 71.857V70.219H309.51V82H305.394V80.362C305.072 80.908 304.61 81.342 304.008 81.664C303.42 81.986 302.727 82.147 301.929 82.147C300.991 82.147 300.137 81.902 299.367 81.412C298.611 80.922 298.009 80.222 297.561 79.312C297.127 78.388 296.91 77.317 296.91 76.099ZM305.394 76.099C305.394 75.343 305.184 74.748 304.764 74.314C304.358 73.88 303.854 73.663 303.252 73.663C302.636 73.663 302.125 73.88 301.719 74.314C301.313 74.734 301.11 75.329 301.11 76.099C301.11 76.855 301.313 77.457 301.719 77.905C302.125 78.339 302.636 78.556 303.252 78.556C303.854 78.556 304.358 78.339 304.764 77.905C305.184 77.471 305.394 76.869 305.394 76.099ZM339.764 70.219V82H335.627V80.32C335.277 80.852 334.794 81.286 334.178 81.622C333.562 81.944 332.855 82.105 332.057 82.105C330.685 82.105 329.6 81.657 328.802 80.761C328.018 79.851 327.626 78.619 327.626 77.065V70.219H331.721V76.54C331.721 77.212 331.896 77.744 332.246 78.136C332.61 78.514 333.086 78.703 333.674 78.703C334.276 78.703 334.752 78.514 335.102 78.136C335.452 77.744 335.627 77.212 335.627 76.54V70.219H339.764ZM362.078 66.46V82H357.962V66.46H362.078ZM382.356 69.127C381.628 69.127 381.04 68.931 380.592 68.539C380.158 68.133 379.941 67.629 379.941 67.027C379.941 66.411 380.158 65.9 380.592 65.494C381.04 65.088 381.628 64.885 382.356 64.885C383.07 64.885 383.644 65.088 384.078 65.494C384.526 65.9 384.75 66.411 384.75 67.027C384.75 67.629 384.526 68.133 384.078 68.539C383.644 68.931 383.07 69.127 382.356 69.127ZM384.393 70.219V82H380.277V70.219H384.393ZM410.299 70.114C411.657 70.114 412.735 70.569 413.533 71.479C414.331 72.375 414.73 73.593 414.73 75.133V82H410.614V75.679C410.614 75.007 410.439 74.482 410.089 74.104C409.739 73.712 409.27 73.516 408.682 73.516C408.066 73.516 407.583 73.712 407.233 74.104C406.883 74.482 406.708 75.007 406.708 75.679V82H402.592V70.219H406.708V71.899C407.072 71.367 407.562 70.94 408.178 70.618C408.794 70.282 409.501 70.114 410.299 70.114ZM437.19 70.072C437.988 70.072 438.681 70.233 439.269 70.555C439.871 70.877 440.333 71.311 440.655 71.857V70.219H444.771V81.874C444.771 82.98 444.561 83.974 444.141 84.856C443.721 85.752 443.063 86.466 442.167 86.998C441.285 87.53 440.165 87.796 438.807 87.796C436.987 87.796 435.531 87.369 434.439 86.515C433.347 85.661 432.724 84.499 432.57 83.029H436.623C436.707 83.407 436.917 83.701 437.253 83.911C437.589 84.121 438.023 84.226 438.555 84.226C439.955 84.226 440.655 83.442 440.655 81.874V80.362C440.333 80.908 439.871 81.342 439.269 81.664C438.681 81.986 437.988 82.147 437.19 82.147C436.252 82.147 435.398 81.902 434.628 81.412C433.872 80.922 433.27 80.222 432.822 79.312C432.388 78.388 432.171 77.317 432.171 76.099C432.171 74.881 432.388 73.817 432.822 72.907C433.27 71.997 433.872 71.297 434.628 70.807C435.398 70.317 436.252 70.072 437.19 70.072ZM440.655 76.099C440.655 75.343 440.445 74.748 440.025 74.314C439.619 73.88 439.115 73.663 438.513 73.663C437.897 73.663 437.386 73.88 436.98 74.314C436.574 74.734 436.371 75.329 436.371 76.099C436.371 76.855 436.574 77.457 436.98 77.905C437.386 78.339 437.897 78.556 438.513 78.556C439.115 78.556 439.619 78.339 440.025 77.905C440.445 77.471 440.655 76.869 440.655 76.099Z" fill="#6D91EE"/>
<defs>
<clipPath id="clip0_554_148">
<rect width="83" height="59" fill="white" transform="translate(0 14)"/>
</clipPath>
</defs>
</svg>
